# xmcd
#
# Track frame offsets: 
#        150
#        12512
#        26178
#        39899
#        57687
#        72678
#        87519
#        101436
#        111119
#        127244
#        147034
#        160031
#        176441
#        187489
#        201882
#        219046
#        236960
#        251254
#        264101
#        283797
#        299190
#        314266
#        333398
#        346137
#        364983
#
# Disc length: 5086 seconds
#
# Revision: 1
# Processed by: cddbd v1.5.2PL0 Copyright (c) Steve Scherf et al.
# Submitted via: ExactAudioCopy v1.0b3
#
DISCID=9113dc19
DTITLE=Freddie King - Taking Care of Business [CD5]
DYEAR=2009
DGENRE=Blues
TTITLE0=Hot Tomato
TTITLE1=Wide Open
TTITLE2=Let Me Down Easy
TTITLE3=Today I Sing The Blues
TTITLE4=Yonder Wall
TTITLE5=I Wonder Why
TTITLE6=I Don't Know
TTITLE7=My Feeling For the Blues
TTITLE8=The Stumble
TTITLE9=Stormy Monday
TTITLE10=What'd I Say
TTITLE11=Ain't Nobody's Business What We Do
TTITLE12=You Don't Have To Go
TTITLE13=Woke Up This Morning
TTITLE14=The Things I Used To Do
TTITLE15=Same Old Blues
TTITLE16=Dust My Broom
TTITLE17=Worried Life Blues
TTITLE18=Five Long Years
TTITLE19=Key to the Highway
TTITLE20=Going Down
TTITLE21=Living On The Highway
TTITLE22=Walking By Myself
TTITLE23=Tore Down
TTITLE24=Palace of The King
EXTD=
EXTT0=
EXTT1=
EXTT2=
EXTT3=
EXTT4=
EXTT5=
EXTT6=
EXTT7=
EXTT8=
EXTT9=
EXTT10=
EXTT11=
EXTT12=
EXTT13=
EXTT14=
EXTT15=
EXTT16=
EXTT17=
EXTT18=
EXTT19=
EXTT20=
EXTT21=
EXTT22=
EXTT23=
EXTT24=
PLAYORDER=
